<svg width="462" height="101" viewBox="0 0 462 101" fill="none" xmlns="http://www.w3.org/2000/svg">
<path d="M2.75213 37V0.636363H17.9155C20.638 0.636363 22.9167 1.02107 24.7514 1.79048C26.598 2.55989 27.983 3.63707 28.9062 5.02202C29.8414 6.40696 30.3089 8.01089 30.3089 9.83381C30.3089 11.2188 30.0189 12.4557 29.4389 13.5447C28.8589 14.6219 28.0599 15.5156 27.0419 16.2259C26.0239 16.9361 24.8461 17.4332 23.5085 17.7173V18.0724C24.9763 18.1435 26.3317 18.54 27.5746 19.2621C28.8293 19.9841 29.8355 20.9903 30.593 22.2805C31.3506 23.5589 31.7294 25.0741 31.7294 26.826C31.7294 28.7791 31.2322 30.5251 30.2379 32.0639C29.2436 33.5909 27.8054 34.7983 25.9233 35.6861C24.0412 36.562 21.7566 37 19.0696 37H2.75213ZM11.5412 29.9155H16.9744C18.8802 29.9155 20.2829 29.5545 21.1825 28.8324C22.094 28.1103 22.5497 27.1042 22.5497 25.8139C22.5497 24.8788 22.3307 24.0739 21.8928 23.3991C21.4548 22.7126 20.8333 22.1858 20.0284 21.8189C19.2235 21.4401 18.2588 21.2507 17.1342 21.2507H11.5412V29.9155ZM11.5412 15.5866H16.4062C17.3651 15.5866 18.2173 15.4268 18.9631 15.1072C19.7088 14.7876 20.2888 14.326 20.7031 13.7223C21.1293 13.1186 21.3423 12.3906 21.3423 11.5384C21.3423 10.3191 20.9103 9.36032 20.0462 8.66193C19.1821 7.96354 18.0161 7.61435 16.5483 7.61435H11.5412V15.5866ZM43.821 37H34.375L46.6442 0.636363H58.3452L70.6143 37H61.1683L52.6278 9.79829H52.3438L43.821 37ZM42.5604 22.6889H62.3047V29.3651H42.5604V22.6889ZM68.7988 7.77415V0.636363H99.5339V7.77415H88.5076V37H79.8429V7.77415H68.7988ZM103.826 37V0.636363H129.181V7.77415H112.615V15.2315H127.885V22.3871H112.615V29.8622H129.181V37H103.826ZM156.685 0.636363H165.456V24.0916C165.456 26.8023 164.811 29.1638 163.521 31.1761C162.231 33.1766 160.431 34.7273 158.123 35.8281C155.815 36.9171 153.134 37.4616 150.08 37.4616C146.99 37.4616 144.292 36.9171 141.983 35.8281C139.675 34.7273 137.882 33.1766 136.603 31.1761C135.325 29.1638 134.686 26.8023 134.686 24.0916V0.636363H143.475V23.3281C143.475 24.5829 143.747 25.7015 144.292 26.6839C144.848 27.6664 145.623 28.4358 146.618 28.9922C147.612 29.5485 148.766 29.8267 150.08 29.8267C151.394 29.8267 152.542 29.5485 153.525 28.9922C154.519 28.4358 155.294 27.6664 155.85 26.6839C156.407 25.7015 156.685 24.5829 156.685 23.3281V0.636363ZM189.573 37H180.127L192.396 0.636363H204.097L216.366 37H206.92L198.38 9.79829H198.096L189.573 37ZM188.312 22.6889H208.057V29.3651H188.312V22.6889ZM232.475 23.9318H239.577L242.596 27.7848L246.555 32.3303L252.646 39.8409H244.691L240.43 34.745L237.908 31.1229L232.475 23.9318ZM252.894 18.8182C252.894 22.8191 252.125 26.2105 250.586 28.9922C249.047 31.7739 246.964 33.8868 244.336 35.331C241.72 36.7751 238.784 37.4972 235.529 37.4972C232.262 37.4972 229.321 36.7692 226.705 35.3132C224.089 33.8572 222.011 31.7443 220.472 28.9744C218.945 26.1927 218.182 22.8073 218.182 18.8182C218.182 14.8172 218.945 11.4259 220.472 8.64418C222.011 5.86245 224.089 3.74953 226.705 2.3054C229.321 0.861268 232.262 0.139203 235.529 0.139203C238.784 0.139203 241.72 0.861268 244.336 2.3054C246.964 3.74953 249.047 5.86245 250.586 8.64418C252.125 11.4259 252.894 14.8172 252.894 18.8182ZM243.91 18.8182C243.91 16.4508 243.572 14.4503 242.898 12.8168C242.235 11.1832 241.276 9.94626 240.021 9.10582C238.778 8.26539 237.281 7.84517 235.529 7.84517C233.789 7.84517 232.292 8.26539 231.037 9.10582C229.782 9.94626 228.817 11.1832 228.143 12.8168C227.48 14.4503 227.148 16.4508 227.148 18.8182C227.148 21.1856 227.48 23.1861 228.143 24.8196C228.817 26.4531 229.782 27.6901 231.037 28.5305C232.292 29.371 233.789 29.7912 235.529 29.7912C237.281 29.7912 238.778 29.371 240.021 28.5305C241.276 27.6901 242.235 26.4531 242.898 24.8196C243.572 23.1861 243.91 21.1856 243.91 18.8182ZM280.074 0.636363H288.845V24.0916C288.845 26.8023 288.2 29.1638 286.91 31.1761C285.619 33.1766 283.82 34.7273 281.512 35.8281C279.204 36.9171 276.523 37.4616 273.469 37.4616C270.379 37.4616 267.68 36.9171 265.372 35.8281C263.064 34.7273 261.27 33.1766 259.992 31.1761C258.714 29.1638 258.074 26.8023 258.074 24.0916V0.636363H266.863V23.3281C266.863 24.5829 267.136 25.7015 267.68 26.6839C268.237 27.6664 269.012 28.4358 270.006 28.9922C271.001 29.5485 272.155 29.8267 273.469 29.8267C274.782 29.8267 275.931 29.5485 276.913 28.9922C277.907 28.4358 278.683 27.6664 279.239 26.6839C279.796 25.7015 280.074 24.5829 280.074 23.3281V0.636363ZM294.354 37V0.636363H319.709V7.77415H303.143V15.2315H318.413V22.3871H303.143V29.8622H319.709V37H294.354ZM325.213 37V0.636363H334.002V29.8622H349.13V37H325.213ZM362.034 37H352.588L364.857 0.636363H376.558L388.827 37H379.381L370.841 9.79829H370.557L362.034 37ZM360.773 22.6889H380.518V29.3651H360.773V22.6889ZM205.402 98H191.961V61.6364H205.384C209.089 61.6364 212.28 62.3643 214.955 63.8203C217.642 65.2644 219.713 67.3478 221.169 70.0703C222.625 72.781 223.353 76.0244 223.353 79.8004C223.353 83.5883 222.625 86.8435 221.169 89.5661C219.725 92.2886 217.66 94.3778 214.972 95.8338C212.285 97.2779 209.095 98 205.402 98ZM200.75 90.5071H205.065C207.101 90.5071 208.823 90.1638 210.232 89.4773C211.652 88.7789 212.723 87.6484 213.445 86.0859C214.179 84.5116 214.546 82.4164 214.546 79.8004C214.546 77.1844 214.179 75.1011 213.445 73.5504C212.712 71.9879 211.628 70.8634 210.196 70.1768C208.776 69.4785 207.024 69.1293 204.941 69.1293H200.75V90.5071ZM228.485 98V61.6364H253.84V68.7741H237.274V76.2315H252.544V83.3871H237.274V90.8622H253.84V98H228.485ZM444.012 86.8672V86.1392C444.012 84.1269 444.178 82.523 444.509 81.3274C444.852 80.1319 445.349 79.1731 446.001 78.451C446.652 77.7171 447.445 77.0483 448.38 76.4446C449.126 75.9711 449.788 75.4917 450.368 75.0064C450.96 74.5092 451.428 73.9766 451.771 73.4084C452.114 72.8402 452.286 72.1951 452.286 71.473C452.286 70.7746 452.12 70.1591 451.789 69.6264C451.457 69.0937 451.002 68.6854 450.422 68.4013C449.854 68.1053 449.22 67.9574 448.522 67.9574C447.823 67.9574 447.166 68.1172 446.551 68.4368C445.947 68.7564 445.45 69.2121 445.059 69.804C444.681 70.384 444.485 71.0883 444.474 71.9169H436.306C436.341 69.4311 436.916 67.3951 438.028 65.8089C439.153 64.2228 440.638 63.0509 442.485 62.2933C444.331 61.5239 446.367 61.1392 448.593 61.1392C451.031 61.1392 453.198 61.518 455.091 62.2756C456.997 63.0331 458.495 64.1518 459.584 65.6314C460.673 67.111 461.217 68.9221 461.217 71.0646C461.217 72.4732 460.98 73.7161 460.507 74.7933C460.033 75.8705 459.371 76.8234 458.518 77.652C457.678 78.4687 456.689 79.2145 455.553 79.8892C454.665 80.41 453.925 80.9545 453.334 81.5227C452.754 82.0909 452.316 82.742 452.02 83.4759C451.724 84.1979 451.576 85.0857 451.576 86.1392V86.8672H444.012ZM447.936 98.5149C446.657 98.5149 445.563 98.0651 444.651 97.1655C443.751 96.2659 443.308 95.1768 443.319 93.8984C443.308 92.6437 443.751 91.5724 444.651 90.6847C445.563 89.785 446.657 89.3352 447.936 89.3352C449.155 89.3352 450.226 89.785 451.15 90.6847C452.073 91.5724 452.541 92.6437 452.552 93.8984C452.541 94.7507 452.316 95.526 451.878 96.2244C451.452 96.9228 450.889 97.4792 450.191 97.8935C449.504 98.3078 448.753 98.5149 447.936 98.5149Z" fill="white"/>
<path d="M16.6016 98L22.5675 61.6364H28.9595L22.9936 98H16.6016ZM0.390625 89.3352L1.47372 82.9432H30.3089L29.2259 89.3352H0.390625ZM3.81747 98L9.78338 61.6364H16.1754L10.2095 98H3.81747ZM2.46804 76.6932L3.55114 70.3011H32.3864L31.3033 76.6932H2.46804ZM35.5158 98V61.6364H60.3382V68.7741H44.3049V76.2315H58.758V83.3871H44.3049V98H35.5158ZM99.0856 79.8182C99.0856 83.8191 98.3162 87.2105 96.7773 89.9922C95.2385 92.7739 93.1552 94.8868 90.5273 96.331C87.9113 97.7751 84.9757 98.4972 81.7205 98.4972C78.4535 98.4972 75.512 97.7692 72.896 96.3132C70.2799 94.8572 68.2025 92.7443 66.6637 89.9744C65.1367 87.1927 64.3732 83.8073 64.3732 79.8182C64.3732 75.8172 65.1367 72.4259 66.6637 69.6442C68.2025 66.8625 70.2799 64.7495 72.896 63.3054C75.512 61.8613 78.4535 61.1392 81.7205 61.1392C84.9757 61.1392 87.9113 61.8613 90.5273 63.3054C93.1552 64.7495 95.2385 66.8625 96.7773 69.6442C98.3162 72.4259 99.0856 75.8172 99.0856 79.8182ZM90.1012 79.8182C90.1012 77.4508 89.7639 75.4503 89.0891 73.8168C88.4263 72.1832 87.4674 70.9463 86.2127 70.1058C84.9698 69.2654 83.4724 68.8452 81.7205 68.8452C79.9805 68.8452 78.4831 69.2654 77.2283 70.1058C75.9736 70.9463 75.0089 72.1832 74.3342 73.8168C73.6713 75.4503 73.3398 77.4508 73.3398 79.8182C73.3398 82.1856 73.6713 84.1861 74.3342 85.8196C75.0089 87.4531 75.9736 88.6901 77.2283 89.5305C78.4831 90.371 79.9805 90.7912 81.7205 90.7912C83.4724 90.7912 84.9698 90.371 86.2127 89.5305C87.4674 88.6901 88.4263 87.4531 89.0891 85.8196C89.7639 84.1861 90.1012 82.1856 90.1012 79.8182ZM104.217 61.6364H115.101L124.334 84.1506H124.76L133.993 61.6364H144.877V98H136.319V75.6634H136.017L127.282 97.7692H121.813L113.077 75.5391H112.775V98H104.217V61.6364ZM150.36 98V61.6364H175.715V68.7741H159.149V76.2315H174.419V83.3871H159.149V90.8622H175.715V98H150.36ZM270.086 61.6364H280.97L290.203 84.1506H290.629L299.862 61.6364H310.747V98H302.188V75.6634H301.887L293.151 97.7692H287.682L278.946 75.5391H278.644V98H270.086V61.6364ZM316.229 98V61.6364H341.584V68.7741H325.018V76.2315H340.288V83.3871H325.018V90.8622H341.584V98H316.229ZM325.994 58.174L329.581 50.1662H337.269L331.907 58.174H325.994ZM360.991 84.9318H368.093L371.112 88.7848L375.071 93.3303L381.161 100.841H373.207L368.945 95.745L366.424 92.1229L360.991 84.9318ZM381.41 79.8182C381.41 83.8191 380.64 87.2105 379.102 89.9922C377.563 92.7739 375.479 94.8868 372.852 96.331C370.236 97.7751 367.3 98.4972 364.045 98.4972C360.778 98.4972 357.836 97.7692 355.22 96.3132C352.604 94.8572 350.527 92.7443 348.988 89.9744C347.461 87.1927 346.697 83.8073 346.697 79.8182C346.697 75.8172 347.461 72.4259 348.988 69.6442C350.527 66.8625 352.604 64.7495 355.22 63.3054C357.836 61.8613 360.778 61.1392 364.045 61.1392C367.3 61.1392 370.236 61.8613 372.852 63.3054C375.479 64.7495 377.563 66.8625 379.102 69.6442C380.64 72.4259 381.41 75.8172 381.41 79.8182ZM372.425 79.8182C372.425 77.4508 372.088 75.4503 371.413 73.8168C370.75 72.1832 369.792 70.9463 368.537 70.1058C367.294 69.2654 365.797 68.8452 364.045 68.8452C362.305 68.8452 360.807 69.2654 359.553 70.1058C358.298 70.9463 357.333 72.1832 356.658 73.8168C355.996 75.4503 355.664 77.4508 355.664 79.8182C355.664 82.1856 355.996 84.1861 356.658 85.8196C357.333 87.4531 358.298 88.6901 359.553 89.5305C360.807 90.371 362.305 90.7912 364.045 90.7912C365.797 90.7912 367.294 90.371 368.537 89.5305C369.792 88.6901 370.75 87.4531 371.413 85.8196C372.088 84.1861 372.425 82.1856 372.425 79.8182ZM408.589 61.6364H417.361V85.0916C417.361 87.8023 416.715 90.1638 415.425 92.1761C414.135 94.1766 412.336 95.7273 410.028 96.8281C407.719 97.9171 405.038 98.4616 401.984 98.4616C398.895 98.4616 396.196 97.9171 393.888 96.8281C391.579 95.7273 389.786 94.1766 388.508 92.1761C387.229 90.1638 386.59 87.8023 386.59 85.0916V61.6364H395.379V84.3281C395.379 85.5829 395.651 86.7015 396.196 87.6839C396.752 88.6664 397.528 89.4358 398.522 89.9922C399.516 90.5485 400.67 90.8267 401.984 90.8267C403.298 90.8267 404.446 90.5485 405.429 89.9922C406.423 89.4358 407.198 88.6664 407.755 87.6839C408.311 86.7015 408.589 85.5829 408.589 84.3281V61.6364ZM431.658 61.6364V98H422.869V61.6364H431.658Z" fill="#DB0007"/>
</svg>
